<svg version="1.1" id="Layer_1" xmlns="http://www.w3.org/2000/svg" xmlns:xlink="http://www.w3.org/1999/xlink" x="0px" y="0px"
	 width="100%" viewBox="0 0 500 500" enable-background="new 0 0 500 500" xml:space="preserve">
<defs>
  <!-- 太陽徑向漸層 - 更細緻的過渡 -->
  <radialGradient id="sunGradient" cx="165" cy="163" r="50" gradientUnits="userSpaceOnUse">
    <stop offset="0%" stop-color="#FBE8B8"/>
    <stop offset="35%" stop-color="#F8DCA0"/>
    <stop offset="60%" stop-color="#F6D47F"/>
    <stop offset="85%" stop-color="#F5D074"/>
    <stop offset="100%" stop-color="#F4CC68"/>
  </radialGradient>
  <!-- 山體主漸層 - 深青到淺青 -->
  <linearGradient id="mountainGradient" x1="0%" y1="100%" x2="100%" y2="0%">
    <stop offset="0%" stop-color="#007481"/>
    <stop offset="25%" stop-color="#19838E"/>
    <stop offset="50%" stop-color="#1D919D"/>
    <stop offset="75%" stop-color="#21A0AD"/>
    <stop offset="100%" stop-color="#37A0A5"/>
  </linearGradient>
</defs>
<path fill="#FDFDFD" opacity="1.000000" stroke="none" 
	d="
M1.000000,118.000000 
	C1.000000,97.645775 1.000000,77.291542 1.327431,56.780411 
	C2.441218,55.777069 3.427163,55.043797 3.981643,54.065880 
	C7.670186,47.560535 10.919700,40.779404 14.961971,34.506836 
	C24.565889,19.604010 38.356518,9.970194 54.851921,3.908747 
	C56.090343,3.453674 56.959297,1.993136 58.000000,1.000000 
	C186.354233,1.000000 314.708466,1.000000 443.240112,1.318945 
	C446.127808,3.367263 448.634918,5.924108 451.591553,6.649902 
	C457.350464,8.063616 461.565857,11.815304 466.323212,14.760046 
	C473.927734,19.467123 480.346985,25.528158 485.327087,32.919670 
	C489.170807,38.624588 492.311523,44.799812 496.068909,50.567863 
	C497.687256,53.052242 496.508484,57.450283 501.000000,58.000000 
	C501.000000,80.020897 501.000000,102.041786 500.600677,124.531319 
	C497.633453,124.202637 495.065582,123.405319 492.336975,122.558098 
	C490.499969,123.937462 488.425629,125.495026 486.532288,126.916702 
	C486.532288,129.274139 486.532288,131.462570 486.532288,134.018158 
	C482.824677,133.226700 481.446808,131.767731 482.693085,128.335159 
	C483.506714,126.094193 482.626495,124.883286 479.982605,125.123268 
	C477.211884,125.374748 474.414459,125.332275 471.270111,125.429344 
	C469.848877,125.642685 467.923645,125.663399 466.206299,126.271393 
	C464.739014,126.790878 463.375946,127.839577 462.212402,128.918945 
	C460.944885,130.094742 459.960388,131.575638 458.852509,132.923523 
	C457.893402,131.300980 456.962524,129.660843 455.966949,128.061005 
	C455.035339,126.563919 454.035065,125.109558 452.757996,123.170143 
	C451.180359,125.359634 450.277924,126.612053 449.191742,128.119507 
	C447.400787,126.682793 445.881622,125.464127 444.362488,124.245468 
	C444.313904,124.717430 444.265320,125.189400 444.216736,125.661362 
	C440.731140,125.502716 437.227478,125.510681 433.765533,125.134338 
	C430.831085,124.815353 427.942108,123.576027 425.038055,123.593376 
	C420.281586,123.621796 415.490234,124.904747 410.788025,124.580109 
	C407.289551,124.338577 405.453156,124.083374 406.524567,128.365738 
	C406.678864,128.982574 405.707642,129.880997 405.257324,130.649109 
	C404.611237,130.221283 403.439362,129.837524 403.399200,129.358871 
	C402.923401,123.684990 397.353729,124.794731 394.723450,122.090538 
	C390.492645,127.071022 389.873566,127.132927 384.390137,124.163338 
	C382.110138,124.661804 379.718384,125.028793 377.684753,124.339386 
	C372.147003,122.462051 363.831543,124.512512 361.419312,128.401886 
	C359.831512,125.634102 358.474121,123.151894 357.111542,120.672539 
	C352.428375,112.151146 347.581207,103.770554 336.687103,102.143402 
	C332.414886,101.505302 328.053589,100.464630 323.822449,100.786232 
	C317.573975,101.261192 311.206024,102.299629 306.694397,107.554375 
	C301.851776,113.194633 297.014221,118.839241 292.128235,124.048233 
	C291.611450,122.477615 291.195007,120.378342 290.662201,120.348373 
	C282.851471,119.909142 274.912079,118.922737 267.265656,119.974365 
	C264.677460,120.330322 261.984894,121.170433 259.113068,121.063156 
	C255.792633,120.939133 251.393723,122.680161 249.348923,121.127625 
	C245.296982,118.051147 242.456848,119.587929 238.897736,121.072662 
	C237.136185,121.807526 234.927795,122.213264 233.084534,121.876343 
	C226.564468,120.684616 220.150452,118.902893 213.622787,117.766846 
	C210.512619,117.225548 207.079529,117.043190 204.095749,117.837151 
	C202.323914,118.308624 201.141876,120.996674 199.698135,122.684052 
	C192.131760,116.525536 192.131760,116.525536 189.669464,120.069443 
	C180.417053,121.287994 172.374268,115.130493 163.921646,121.196892 
	C161.829803,117.101097 159.691711,115.334709 156.084854,119.533127 
	C155.061172,120.724701 152.401550,120.687546 150.459595,120.873352 
	C147.298309,121.175835 144.110199,121.198036 140.906525,121.339706 
	C139.188995,120.478188 136.045593,117.813370 134.888641,118.499252 
	C127.838913,122.678619 122.005104,119.871483 116.132263,117.129761 
	C113.950958,117.910172 111.211258,119.086655 109.553375,118.212173 
	C103.172646,114.846581 94.362984,115.710632 89.249023,121.180191 
	C88.158218,120.280388 87.155571,119.131248 85.893372,118.506386 
	C84.726242,117.928581 83.284431,117.704636 81.957878,117.683533 
	C75.076141,117.574120 68.191788,117.619438 61.310848,117.483994 
	C60.614468,117.470284 59.945099,116.225639 59.245544,116.206779 
	C56.593872,116.135284 53.128113,115.314972 51.449142,116.645393 
	C48.104828,119.295418 44.744049,118.934990 41.121468,118.900261 
	C34.822605,118.839874 28.522371,118.927429 22.222692,118.944817 
	C18.725773,118.954468 14.523412,120.173027 11.897134,118.661179 
	C7.954761,116.391701 4.649683,117.496765 1.000000,118.000000 
z"/>
<path fill="#F5F5F5" opacity="1.000000" stroke="none" 
	d="
M501.000000,276.000000 
	C501.000000,330.354218 501.000000,384.708466 500.640930,439.534729 
	C499.226532,440.006775 498.171204,440.006775 496.759155,440.006775 
	C497.205505,438.336121 497.962860,437.016235 497.802704,435.819092 
	C497.306183,432.108154 497.662659,427.192413 495.453644,425.070953 
	C492.542053,422.274872 487.523071,421.648376 483.368439,420.209442 
	C482.944092,420.062439 482.230927,420.730316 481.658508,421.032806 
	C478.604309,422.646942 475.640930,424.488068 472.449890,425.757324 
	C471.376678,426.184235 469.128296,425.621155 468.439148,424.724762 
	C464.505554,419.608246 460.296478,420.824951 456.530426,423.521942 
	C453.632874,422.438538 451.122559,420.547516 448.964478,420.888184 
	C444.250183,421.632355 439.799957,424.326752 435.141266,420.386810 
	C434.342255,419.711060 432.097046,420.735779 430.522339,420.990021 
	C429.451599,421.162872 428.390350,421.473907 427.315521,421.524780 
	C425.439545,421.613617 423.556366,421.549530 421.676208,421.549530 
	C421.607330,422.039551 421.538422,422.529602 421.469543,423.019623 
	C419.292694,421.879578 417.198456,420.503113 414.903412,419.701324 
	C413.791565,419.312866 411.493286,419.572205 411.120148,420.275085 
	C409.093536,424.092682 406.470703,423.187988 403.542358,421.808807 
	C399.579163,419.942230 396.401642,420.984070 394.189301,424.700989 
	C393.275360,426.236481 392.664368,427.952332 391.915619,429.586151 
	C391.220459,429.363647 390.525330,429.141144 389.830170,428.918640 
	C387.420319,419.192322 382.384094,420.484680 377.350037,425.031921 
	C375.967926,422.663391 374.959564,420.935425 373.951233,419.207428 
	C370.494781,421.254517 367.038330,423.301605 363.581879,425.348694 
	C362.394836,425.277557 360.442902,424.058807 359.054382,422.375366 
	C356.114166,418.810822 353.813904,418.607971 349.867004,421.107574 
	C348.215790,422.153259 345.644409,422.600128 343.720367,422.204803 
	C337.288300,420.883362 330.424927,422.356445 324.261322,419.117798 
	C323.536713,418.737061 321.967651,419.872345 320.831024,420.394165 
	C319.820709,420.858063 318.924896,421.661926 317.878601,421.941010 
	C313.704681,423.054382 312.361847,425.667511 313.392212,429.736572 
	C313.884399,431.680298 314.293152,433.645111 314.879150,436.211090 
	C310.343475,433.958832 309.798859,428.712677 312.701691,419.520966 
	C307.652130,422.549286 303.439392,416.735413 298.387878,419.912933 
	C296.434479,421.141632 293.380463,420.491760 290.928375,421.101746 
	C289.301239,421.506500 287.704346,422.438934 286.367737,423.485016 
	C285.156372,424.433105 284.315735,425.854889 283.595856,426.724487 
	C279.537109,424.268890 276.143372,421.959442 272.506622,420.134277 
	C270.926819,419.341400 268.622955,419.995087 267.038818,419.206512 
	C263.124512,417.258148 259.005249,417.819763 256.527679,420.825439 
	C255.531509,422.033936 253.934067,422.746826 252.610321,423.685303 
	C252.346481,422.038635 252.082626,420.391968 251.743561,418.275787 
	C247.187576,418.666473 241.977386,419.002747 236.798737,419.608612 
	C234.541443,419.872650 232.362610,420.755035 230.120773,421.226410 
	C229.068863,421.447601 227.798584,421.730072 226.890106,421.352417 
	C221.588287,419.148621 216.249817,417.651489 210.395966,418.599731 
	C208.838623,418.852051 206.477737,417.451874 205.622040,418.168030 
	C201.402008,421.699860 198.499176,420.201111 195.796555,415.757996 
	C189.428223,423.160736 181.490891,417.350220 173.694290,418.421661 
	C174.794525,419.925629 175.704620,420.635590 175.842499,421.472778 
	C176.104813,423.065460 175.925735,424.730865 175.929932,426.366058 
	C174.641281,425.780518 173.157028,425.426117 172.117401,424.546326 
	C171.016632,423.614838 170.300003,422.209076 169.483795,420.965698 
	C167.416260,417.816101 164.846924,417.149139 161.556808,419.032806 
	C163.534058,423.900360 163.431763,424.134186 159.267654,424.255585 
	C159.482513,423.418732 159.780685,422.652649 159.865082,421.863678 
	C160.360809,417.229156 158.750793,416.387970 154.193939,417.217468 
	C149.991714,417.982422 145.512970,417.967194 141.252182,417.470612 
	C136.688171,416.938690 132.794601,416.859070 130.530579,423.198883 
	C127.239258,416.987610 123.160889,416.725708 118.553078,419.969513 
	C118.443832,420.046448 118.218254,420.004639 118.062286,419.962006 
	C112.617958,418.473907 107.198929,416.881836 101.714996,415.558685 
	C100.462112,415.256409 98.814941,415.546265 97.649208,416.146332 
	C95.374756,417.317078 93.312164,418.899445 90.905472,420.479736 
	C89.805222,417.767975 89.128586,416.100281 88.614571,414.833405 
	C85.406860,415.259155 82.454193,415.651031 79.880714,415.992615 
	C79.572517,417.375031 79.239052,418.870789 78.905594,420.366516 
	C77.652077,419.831573 76.428337,419.206726 75.139084,418.779572 
	C72.021400,417.746613 68.873161,416.805878 65.737236,415.827972 
	C65.495522,416.251373 65.253807,416.674744 65.012093,417.098145 
	C65.925545,418.373016 67.021324,419.560181 67.691086,420.952271 
	C68.171959,421.951813 68.399277,423.305298 68.134880,424.347473 
	C67.967010,425.009155 66.506599,425.949432 65.953140,425.767700 
	C65.075272,425.479523 64.310097,424.449707 63.798397,423.560394 
	C63.320026,422.729034 63.264244,421.662628 62.969284,420.716248 
	C61.661472,416.520081 56.724667,413.475342 52.602676,414.283295 
	C48.374084,415.112122 44.141121,415.918640 39.290989,416.854401 
	C39.036640,417.965363 38.478916,420.401428 37.921196,422.837494 
	C37.480522,422.858246 37.039848,422.878998 36.599174,422.899750 
	C34.513462,417.174835 31.026215,415.690582 25.671377,418.438995 
	C24.893665,418.838104 22.831158,417.570190 21.850704,416.587341 
	C18.365776,413.093903 16.295685,413.317108 13.593885,417.493225 
	C12.688554,418.892609 11.189055,419.907593 9.961145,421.098297 
	C9.933370,420.523682 9.905594,419.949066 9.877819,419.374481 
	C6.918542,418.249664 3.959266,417.124847 0.999995,416.000000 
	C1.000000,367.312439 1.000000,318.624878 1.362802,269.430786 
	C4.409248,268.552124 7.964801,269.135315 9.614186,267.629974 
	C14.705073,262.983612 17.356104,266.343353 20.407240,269.809692 
	C20.872160,270.337921 21.775635,270.480103 22.744289,270.923553 
	C23.510229,269.195770 24.154900,267.741547 24.775486,266.341614 
	C29.243597,265.483063 31.240971,267.741150 31.659445,272.251801 
	C33.121002,271.523987 34.143669,271.111877 35.066563,270.539001 
	C40.207310,267.348083 45.239285,264.790405 50.909882,269.806519 
	C51.937698,270.715668 54.701797,270.921997 55.879627,270.190033 
	C61.971672,266.404297 66.133850,266.564209 71.616035,271.274689 
	C72.525551,272.056213 73.789055,272.425751 74.767853,273.301422 
	C71.076790,280.752655 67.506866,287.888092 63.671509,295.228729 
	C59.657074,303.173279 55.845192,310.883575 52.233852,318.686676 
	C51.749500,319.733276 52.277813,321.248596 52.337189,322.546844 
	C53.617638,321.898499 55.170712,321.512665 56.110661,320.536438 
	C57.330364,319.269745 58.062008,317.533081 59.237385,316.142395 
	C59.929935,317.073761 60.388844,317.861481 60.830566,319.014404 
	C54.806511,330.791168 48.767624,342.185944 42.806705,353.621399 
	C39.966331,359.070404 40.033527,359.105438 46.225536,361.848511 
	C46.420994,361.930450 46.844044,361.903656 47.082375,361.866577 
	C47.624771,361.691254 47.858261,361.476288 48.486340,361.138580 
	C180.949890,361.100098 312.948303,361.109009 444.946686,361.100342 
	C446.601929,361.100220 448.257172,360.875244 450.280365,360.757507 
	C452.297974,360.118103 454.146423,359.762085 455.558655,358.779205 
	C459.253601,356.207642 460.452148,348.056335 458.121216,343.793274 
	C456.323212,340.504822 454.730133,337.104309 452.999878,333.651001 
	C452.953796,333.548370 452.712799,333.173431 452.468048,332.884399 
	C451.161194,330.359772 450.099060,328.124237 449.026855,325.519897 
	C448.336243,324.103760 447.655762,323.056427 446.741028,321.832001 
	C446.313995,321.109894 446.121155,320.564850 446.265869,319.966278 
	C446.945038,319.433289 447.671692,318.837921 447.567719,318.492645 
	C446.683289,315.555359 445.082916,312.586700 448.738556,310.313293 
	C448.160645,309.542206 447.582764,308.771088 447.003540,307.592834 
	C445.003784,302.457916 443.005371,297.730164 440.956665,292.651001 
	C440.263031,290.535248 439.619720,288.770844 439.361603,286.994873 
	C440.386078,286.121552 441.366974,285.338715 441.588257,284.380463 
	C441.964172,282.752777 441.611237,279.619415 442.000519,279.549622 
	C444.484833,279.104095 447.088257,279.322754 449.652466,279.322754 
	C449.993317,279.669678 450.334137,280.016632 450.674957,280.363556 
	C445.920715,285.011566 449.322418,286.641998 452.955322,289.232910 
	C452.699402,282.619934 453.860840,277.389740 460.465179,275.263214 
	C461.127258,275.838898 462.406616,276.405792 462.512054,277.141022 
	C462.891083,279.784119 462.630005,282.528534 463.106873,285.144196 
	C463.352631,286.492065 464.645050,287.649078 465.464539,288.892273 
	C466.594513,287.917755 468.252258,287.153534 468.742188,285.923950 
	C469.696350,283.529419 469.996185,280.874176 470.764679,277.444916 
	C474.094513,278.355774 477.102325,279.178558 480.301758,280.053741 
	C483.189667,275.847198 485.109467,275.295593 488.274872,280.155792 
	C490.778931,284.000519 491.263428,289.175140 492.560394,293.782959 
	C492.978363,295.267914 493.002106,296.873322 493.515869,298.313110 
	C493.609161,298.574615 495.701904,298.653992 496.018646,298.209534 
	C497.194153,296.560150 499.094879,294.416687 498.757263,292.895081 
	C497.852173,288.816071 495.866211,284.985687 494.448486,281.007019 
	C493.943420,279.589539 493.128052,277.513763 493.739502,276.672668 
	C494.419647,275.737000 496.552124,275.738129 498.078094,275.579987 
	C499.027374,275.481598 500.024414,275.844238 501.000000,276.000000 
M465.932159,292.255310 
	C465.119568,295.489380 466.493988,296.684387 469.034912,296.791779 
	C469.476501,296.344910 469.918091,295.898041 470.359680,295.451172 
	C469.112762,294.343079 467.865814,293.235016 465.932159,292.255310 
M480.181519,287.978455 
	C480.438171,288.145416 480.682373,288.340057 480.958221,288.464417 
	C481.054596,288.507812 481.354370,288.351501 481.350037,288.330902 
	C481.070526,287.004028 480.769196,285.681702 480.469849,284.358978 
	C480.076782,284.470367 479.683685,284.581757 479.290619,284.693146 
	C479.523773,285.582886 479.756927,286.472656 480.181519,287.978455 
z"/>
<path fill="#F3F3F3" opacity="1.000000" stroke="none" 
	d="
M0.999995,416.468689 
	C3.959266,417.124847 6.918542,418.249664 9.877819,419.374481 
	C9.905594,419.949066 9.933370,420.523682 9.961145,421.098297 
	C11.189055,419.907593 12.688554,418.892609 13.593885,417.493225 
	C16.295685,413.317108 18.365776,413.093903 21.850704,416.587341 
	C22.831158,417.570190 24.893665,418.838104 25.671377,418.438995 
	C31.026215,415.690582 34.513462,417.174835 36.599174,422.899750 
	C37.039848,422.878998 37.480522,422.858246 37.921196,422.837494 
	C38.478916,420.401428 39.036640,417.965363 39.290989,416.854401 
	C44.141121,415.918640 48.374084,415.112122 52.602676,414.283295 
	C56.724667,413.475342 61.661472,416.520081 62.969284,420.716248 
	C63.264244,421.662628 63.320026,422.729034 63.798397,423.560394 
	C64.310097,424.449707 65.075272,425.479523 65.953140,425.767700 
	C66.506599,425.949432 67.967010,425.009155 68.134880,424.347473 
	C68.399277,423.305298 68.171959,421.951813 67.691086,420.952271 
	C67.021324,419.560181 65.925545,418.373016 65.012093,417.098145 
	C65.253807,416.674744 65.495522,416.251373 65.737236,415.827972 
	C68.873161,416.805878 72.021400,417.746613 75.139084,418.779572 
	C76.428337,419.206726 77.652077,419.831573 78.905594,420.366516 
	C79.239052,418.870789 79.572517,417.375031 79.880714,415.992615 
	C82.454193,415.651031 85.406860,415.259155 88.614571,414.833405 
	C89.128586,416.100281 89.805222,417.767975 90.905472,420.479736 
	C93.312164,418.899445 95.374756,417.317078 97.649208,416.146332 
	C98.814941,415.546265 100.462112,415.256409 101.714996,415.558685 
	C107.198929,416.881836 112.617958,418.473907 118.062286,419.962006 
	C118.218254,420.004639 118.443832,420.046448 118.553078,419.969513 
	C123.160889,416.725708 127.239258,416.987610 130.530579,423.198883 
	C132.794601,416.859070 136.688171,416.938690 141.252182,417.470612 
	C145.512970,417.967194 149.991714,417.982422 154.193939,417.217468 
	C158.750793,416.387970 160.360809,417.229156 159.865082,421.863678 
	C159.780685,422.652649 159.482513,423.418732 159.267654,424.255585 
	C163.431763,424.134186 163.534058,423.900360 161.556808,419.032806 
	C164.846924,417.149139 167.416260,417.816101 169.483795,420.965698 
	C170.300003,422.209076 171.016632,423.614838 172.117401,424.546326 
	C173.157028,425.426117 174.641281,425.780518 175.929932,426.366058 
	C175.925735,424.730865 176.104813,423.065460 175.842499,421.472778 
	C175.704620,420.635590 174.794525,419.925629 173.694290,418.421661 
	C181.490891,417.350220 189.428223,423.160736 195.796555,415.757996 
	C198.499176,420.201111 201.402008,421.699860 205.622040,418.168030 
	C206.477737,417.451874 208.838623,418.852051 210.395966,418.599731 
	C216.249817,417.651489 221.588287,419.148621 226.890106,421.352417 
	C227.798584,421.730072 229.068863,421.447601 230.120773,421.226410 
	C232.362610,420.755035 234.541443,419.872650 236.798737,419.608612 
	C241.977386,419.002747 247.187576,418.666473 251.743561,418.275787 
	C252.082626,420.391968 252.346481,422.038635 252.610321,423.685303 
	C253.934067,422.746826 255.531509,422.033936 256.527679,420.825439 
	C259.005249,417.819763 263.124512,417.258148 267.038818,419.206512 
	C268.622955,419.995087 270.926819,419.341400 272.506622,420.134277 
	C276.143372,421.959442 279.537109,424.268890 283.595856,426.724487 
	C284.315735,425.854889 285.156372,424.433105 286.367737,423.485016 
	C287.704346,422.438934 289.301239,421.506500 290.928375,421.101746 
	C293.380463,420.491760 296.434479,421.141632 298.387878,419.912933 
	C303.439392,416.735413 307.652130,422.549286 312.701691,419.520966 
	C309.798859,428.712677 310.343475,433.958832 314.879150,436.211090 
	C314.293152,433.645111 313.884399,431.680298 313.392212,429.736572 
	C312.361847,425.667511 313.704681,423.054382 317.878601,421.941010 
	C318.924896,421.661926 319.820709,420.858063 320.831024,420.394165 
	C321.967651,419.872345 323.536713,418.737061 324.261322,419.117798 
	C330.424927,422.356445 337.288300,420.883362 343.720367,422.204803 
	C345.644409,422.600128 348.215790,422.153259 349.867004,421.107574 
	C353.813904,418.607971 356.114166,418.810822 359.054382,422.375366 
	C360.442902,424.058807 362.394836,425.277557 363.581879,425.348694 
	C367.038330,423.301605 370.494781,421.254517 373.951233,419.207428 
	C374.959564,420.935425 375.967926,422.663391 377.350037,425.031921 
	C382.384094,420.484680 387.420319,419.192322 389.830170,428.918640 
	C390.525330,429.141144 391.220459,429.363647 391.915619,429.586151 
	C392.664368,427.952332 393.275360,426.236481 394.189301,424.700989 
	C396.401642,420.984070 399.579163,419.942230 403.542358,421.808807 
	C406.470703,423.187988 409.093536,424.092682 411.120148,420.275085 
	C411.493286,419.572205 413.791565,419.312866 414.903412,419.701324 
	C417.198456,420.503113 419.292694,421.879578 421.469543,423.019623 
	C421.538422,422.529602 421.607330,422.039551 421.676208,421.549530 
	C423.556366,421.549530 425.439545,421.613617 427.315521,421.524780 
	C428.390350,421.473907 429.451599,421.162872 430.522339,420.990021 
	C432.097046,420.735779 434.342255,419.711060 435.141266,420.386810 
	C439.799957,424.326752 444.250183,421.632355 448.964478,420.888184 
	C451.122559,420.547516 453.632874,422.438538 456.530426,423.521942 
	C460.296478,420.824951 464.505554,419.608246 468.439148,424.724762 
	C469.128296,425.621155 471.376678,426.184235 472.449890,425.757324 
	C475.640930,424.488068 478.604309,422.646942 481.658508,421.032806 
	C482.230927,420.730316 482.944092,420.062439 483.368439,420.209442 
	C487.523071,421.648376 492.542053,422.274872 495.453644,425.070953 
	C497.662659,427.192413 497.306183,432.108154 497.802704,435.819092 
	C497.962860,437.016235 497.205505,438.336121 496.759155,440.006775 
	C498.171204,440.006775 499.226532,440.006775 500.640930,440.003387 
	C501.000000,440.444458 501.000000,440.888885 500.675507,441.670227 
	C499.901062,443.286530 499.451111,444.565979 498.654297,446.013580 
	C495.195190,452.630585 492.828888,459.590729 488.826813,465.429657 
	C478.042389,481.163757 463.860199,492.905060 445.486115,499.078949 
	C444.847687,499.293518 444.489044,500.340820 444.000000,501.000000 
	C314.979095,501.000000 185.958206,501.000000 56.763313,500.679443 
	C52.104103,497.920105 47.743717,495.207214 43.108925,493.097015 
	C31.792349,487.944580 22.839306,479.854919 15.752660,469.998779 
	C11.023128,463.420990 7.899457,455.696808 3.922096,448.560944 
	C3.328193,447.495392 1.992519,446.843323 1.000004,446.000000 
	C1.000000,436.312439 1.000000,426.624878 0.999995,416.468689 
z"/>
<path fill="#FAFAFA" opacity="1.000000" stroke="none" 
	d="
M74.888977,272.985657 
	C73.789055,272.425751 72.525551,272.056213 71.616035,271.274689 
	C66.133850,266.564209 61.971672,266.404297 55.879627,270.190033 
	C54.701797,270.921997 51.937698,270.715668 50.909882,269.806519 
	C45.239285,264.790405 40.207310,267.348083 35.066563,270.539001 
	C34.143669,271.111877 33.121002,271.523987 31.659445,272.251801 
	C31.240971,267.741150 29.243597,265.483063 24.775486,266.341614 
	C24.154900,267.741547 23.510229,269.195770 22.744289,270.923553 
	C21.775635,270.480103 20.872160,270.337921 20.407240,269.809692 
	C17.356104,266.343353 14.705073,262.983612 9.614186,267.629974 
	C7.964801,269.135315 4.409248,268.552124 1.362802,268.962128 
	C1.000000,218.979111 1.000000,168.958206 1.000000,118.468658 
	C4.649683,117.496765 7.954761,116.391701 11.897134,118.661179 
	C14.523412,120.173027 18.725773,118.954468 22.222692,118.944817 
	C28.522371,118.927429 34.822605,118.839874 41.121468,118.900261 
	C44.744049,118.934990 48.104828,119.295418 51.449142,116.645393 
	C53.128113,115.314972 56.593872,116.135284 59.245544,116.206779 
	C59.945099,116.225639 60.614468,117.470284 61.310848,117.483994 
	C68.191788,117.619438 75.076141,117.574120 81.957878,117.683533 
	C83.284431,117.704636 84.726242,117.928581 85.893372,118.506386 
	C87.155571,119.131248 88.158218,120.280388 89.249023,121.180191 
	C94.362984,115.710632 103.172646,114.846581 109.553375,118.212173 
	C111.211258,119.086655 113.950958,117.910172 116.132263,117.129761 
	C122.005104,119.871483 127.838913,122.678619 134.888641,118.499252 
	C136.045593,117.813370 139.188995,120.478188 140.906525,121.339706 
	C144.110199,121.198036 147.298309,121.175835 150.459595,120.873352 
	C152.401550,120.687546 155.061172,120.724701 156.084854,119.533127 
	C159.691711,115.334709 161.829803,117.101097 163.921646,121.196892 
	C172.374268,115.130493 180.417053,121.287994 189.669464,120.069443 
	C192.131760,116.525536 192.131760,116.525536 199.698135,122.684052 
	C201.141876,120.996674 202.323914,118.308624 204.095749,117.837151 
	C207.079529,117.043190 210.512619,117.225548 213.622787,117.766846 
	C220.150452,118.902893 226.564468,120.684616 233.084534,121.876343 
	C234.927795,122.213264 237.136185,121.807526 238.897736,121.072662 
	C242.456848,119.587929 245.296982,118.051147 249.348923,121.127625 
	C251.393723,122.680161 255.792633,120.939133 259.113068,121.063156 
	C261.984894,121.170433 264.677460,120.330322 267.265656,119.974365 
	C274.912079,118.922737 282.851471,119.909142 290.662201,120.348373 
	C291.195007,120.378342 291.611450,122.477615 292.001892,124.339676 
	C276.257263,147.021454 260.592743,168.978088 244.631165,191.088135 
	C234.827820,203.139862 225.321533,215.038193 215.535583,227.104691 
	C202.145966,239.447021 204.983978,240.074081 187.755814,229.889099 
	C187.327835,229.636093 186.936722,229.321564 186.516129,229.055115 
	C179.667206,224.716019 172.816284,220.380066 165.724884,215.805237 
	C161.005859,213.424133 156.635498,211.009094 152.030777,209.185913 
	C133.095016,201.688477 121.914398,204.754669 109.213135,220.658768 
	C108.902847,221.047287 108.587158,221.431473 108.005615,221.937164 
	C99.381042,234.689407 91.024841,247.322189 82.401901,260.146545 
	C79.719772,264.553925 77.304375,268.769775 74.888977,272.985657 
M142.927063,167.811935 
	C143.961288,170.862976 144.995499,173.914001 146.226013,177.618164 
	C152.668640,188.095108 165.349915,190.940491 176.010284,184.316406 
	C185.876404,178.185867 189.087585,169.056641 187.976639,157.163727 
	C186.164108,153.413025 184.351593,149.662323 182.111328,145.313980 
	C177.817017,139.932007 172.053589,137.912811 165.446014,138.710541 
	C151.078964,140.445023 142.310608,151.645081 142.927063,167.811935 
M37.704807,266.565643 
	C37.989231,266.294220 38.273659,266.022766 38.558086,265.751343 
	C38.445564,265.633606 38.241383,265.407379 38.233746,265.413818 
	C37.933773,265.667175 37.651665,265.941681 37.704807,266.565643 
z"/>
<path fill="#FAFAFA" opacity="1.000000" stroke="none" 
	d="
M501.000000,275.531342 
	C500.024414,275.844238 499.027374,275.481598 498.078094,275.579987 
	C496.552124,275.738129 494.419647,275.737000 493.739502,276.672668 
	C493.128052,277.513763 493.943420,279.589539 494.448486,281.007019 
	C495.866211,284.985687 497.852173,288.816071 498.757263,292.895081 
	C499.094879,294.416687 497.194153,296.560150 496.018646,298.209534 
	C495.701904,298.653992 493.609161,298.574615 493.515869,298.313110 
	C493.002106,296.873322 492.978363,295.267914 492.560394,293.782959 
	C491.263428,289.175140 490.778931,284.000519 488.274872,280.155792 
	C485.109467,275.295593 483.189667,275.847198 480.301758,280.053741 
	C477.102325,279.178558 474.094513,278.355774 470.764679,277.444916 
	C469.996185,280.874176 469.696350,283.529419 468.742188,285.923950 
	C468.252258,287.153534 466.594513,287.917755 465.464539,288.892273 
	C464.645050,287.649078 463.352631,286.492065 463.106873,285.144196 
	C462.630005,282.528534 462.891083,279.784119 462.512054,277.141022 
	C462.406616,276.405792 461.127258,275.838898 460.465179,275.263214 
	C453.860840,277.389740 452.699402,282.619934 452.955322,289.232910 
	C449.322418,286.641998 445.920715,285.011566 450.674957,280.363556 
	C450.334137,280.016632 449.993317,279.669678 449.652466,279.322754 
	C447.088257,279.322754 444.484833,279.104095 442.000519,279.549622 
	C441.611237,279.619415 441.964172,282.752777 441.588257,284.380463 
	C441.366974,285.338715 440.386078,286.121552 439.213470,286.674622 
	C434.597198,277.565918 430.576233,268.736298 426.398041,259.981720 
	C424.920715,256.886353 423.059723,253.974045 421.250183,250.615646 
	C416.126984,239.792313 411.127533,229.331482 406.052612,218.516327 
	C399.037598,204.063431 392.098053,189.964844 385.063416,175.522827 
	C377.194672,159.682510 369.421021,144.185638 361.647369,128.688751 
	C363.831543,124.512512 372.147003,122.462051 377.684753,124.339386 
	C379.718384,125.028793 382.110138,124.661804 384.390137,124.163338 
	C389.873566,127.132927 390.492645,127.071022 394.723450,122.090538 
	C397.353729,124.794731 402.923401,123.684990 403.399200,129.358871 
	C403.439362,129.837524 404.611237,130.221283 405.257324,130.649109 
	C405.707642,129.880997 406.678864,128.982574 406.524567,128.365738 
	C405.453156,124.083374 407.289551,124.338577 410.788025,124.580109 
	C415.490234,124.904747 420.281586,123.621796 425.038055,123.593376 
	C427.942108,123.576027 430.831085,124.815353 433.765533,125.134338 
	C437.227478,125.510681 440.731140,125.502716 444.216736,125.661362 
	C444.265320,125.189400 444.313904,124.717430 444.362488,124.245468 
	C445.881622,125.464127 447.400787,126.682793 449.191742,128.119507 
	C450.277924,126.612053 451.180359,125.359634 452.757996,123.170143 
	C454.035065,125.109558 455.035339,126.563919 455.966949,128.061005 
	C456.962524,129.660843 457.893402,131.300980 458.852509,132.923523 
	C459.960388,131.575638 460.944885,130.094742 462.212402,128.918945 
	C463.375946,127.839577 464.739014,126.790878 466.206299,126.271393 
	C467.923645,125.663399 469.848877,125.642685 471.270111,125.429344 
	C474.414459,125.332275 477.211884,125.374748 479.982605,125.123268 
	C482.626495,124.883286 483.506714,126.094193 482.693085,128.335159 
	C481.446808,131.767731 482.824677,133.226700 486.532288,134.018158 
	C486.532288,131.462570 486.532288,129.274139 486.532288,126.916702 
	C488.425629,125.495026 490.499969,123.937462 492.336975,122.558098 
	C495.065582,123.405319 497.633453,124.202637 500.600677,124.999977 
	C501.000000,175.020889 501.000000,225.041794 501.000000,275.531342 
z"/>
<path fill="#000000" opacity="1.000000" stroke="none" 
	d="
M501.000000,57.531342 
	C496.508484,57.450283 497.687256,53.052242 496.068909,50.567863 
	C492.311523,44.799812 489.170807,38.624588 485.327087,32.919670 
	C480.346985,25.528158 473.927734,19.467123 466.323212,14.760046 
	C461.565857,11.815304 457.350464,8.063616 451.591553,6.649902 
	C448.634918,5.924108 446.127808,3.367263 443.708771,1.318945 
	C462.926788,1.000000 481.853577,1.000000 501.000000,1.000000 
	C501.000000,19.686987 501.000000,38.374836 501.000000,57.531342 
z"/>
<path fill="#000000" opacity="1.000000" stroke="none" 
	d="
M444.468658,501.000000 
	C444.489044,500.340820 444.847687,499.293518 445.486115,499.078949 
	C463.860199,492.905060 478.042389,481.163757 488.826813,465.429657 
	C492.828888,459.590729 495.195190,452.630585 498.975159,446.028137 
	C500.095245,445.249725 500.547607,444.624847 501.000000,444.000000 
	C501.000000,462.926788 501.000000,481.853577 501.000000,501.000000 
	C482.313019,501.000000 463.625153,501.000000 444.468658,501.000000 
z"/>
<path fill="#000000" opacity="1.000000" stroke="none" 
	d="
M57.531342,1.000000 
	C56.959297,1.993136 56.090343,3.453674 54.851921,3.908747 
	C38.356518,9.970194 24.565889,19.604010 14.961971,34.506836 
	C10.919700,40.779404 7.670186,47.560535 3.981643,54.065880 
	C3.427163,55.043797 2.441218,55.777069 1.327431,56.311752 
	C1.000000,37.738571 1.000000,19.477144 1.000000,1.000000 
	C19.687008,1.000000 38.374844,1.000000 57.531342,1.000000 
z"/>
<path fill="#000000" opacity="1.000000" stroke="none" 
	d="
M1.000004,446.468658 
	C1.992519,446.843323 3.328193,447.495392 3.922096,448.560944 
	C7.899457,455.696808 11.023128,463.420990 15.752660,469.998779 
	C22.839306,479.854919 31.792349,487.944580 43.108925,493.097015 
	C47.743717,495.207214 52.104103,497.920105 56.294655,500.679443 
	C37.739887,501.000000 19.479771,501.000000 1.000000,501.000000 
	C1.000000,482.979706 1.000000,464.958496 1.000004,446.468658 
z"/>
<path fill="#F5F5F5" opacity="1.000000" stroke="none" 
	d="
M501.000000,443.666687 
	C500.547607,444.624847 500.095245,445.249725 499.322021,445.859985 
	C499.451111,444.565979 499.901062,443.286530 500.675507,442.003540 
	C501.000000,442.444458 501.000000,442.888885 501.000000,443.666687 
z"/>
<path fill="#37A0A5" opacity="1.000000" stroke="none" 
	d="
M361.419312,128.401886 
	C369.421021,144.185638 377.194672,159.682510 384.884583,175.787231 
	C383.896088,177.248718 382.991333,178.102402 381.912170,178.653061 
	C371.268250,158.281830 360.581696,138.322983 350.397064,118.111244 
	C342.062286,101.570618 316.534119,100.490242 305.798126,114.294434 
	C297.700745,124.705917 290.045654,135.463867 282.282593,146.132278 
	C270.837372,161.860901 259.471222,177.647018 247.936981,193.085968 
	C246.844452,192.153763 245.886337,191.544250 244.928238,190.934723 
	C260.592743,168.978088 276.257263,147.021454 292.048096,124.773384 
	C297.014221,118.839241 301.851776,113.194633 306.694397,107.554375 
	C311.206024,102.299629 317.573975,101.261192 323.822449,100.786232 
	C328.053589,100.464630 332.414886,101.505302 336.687103,102.143402 
	C347.581207,103.770554 352.428375,112.151146 357.111542,120.672539 
	C358.474121,123.151894 359.831512,125.634102 361.419312,128.401886 
z"/>
<path fill="#19838E" opacity="1.000000" stroke="none" 
	d="
M453.045959,333.753601 
	C454.730133,337.104309 456.323212,340.504822 458.121216,343.793274 
	C460.452148,348.056335 459.253601,356.207642 455.558655,358.779205 
	C454.146423,359.762085 452.297974,360.118103 449.957031,360.512207 
	C447.444427,360.178467 445.623108,360.017090 443.801788,360.016876 
	C347.371918,360.004669 250.942032,360.006226 154.512161,360.006042 
	C120.203773,360.005951 85.895309,359.977722 51.587238,360.079712 
	C49.733196,360.085236 47.882393,361.179230 46.030083,361.766541 
	C40.033527,359.105438 39.966331,359.070404 42.806705,353.621399 
	C48.767624,342.185944 54.806511,330.791168 61.100052,318.833344 
	C65.502388,311.644684 69.618057,305.002350 73.785294,298.771515 
	C72.104675,305.015991 76.317001,303.985870 79.475082,303.986298 
	C195.922562,304.002563 312.370026,304.000031 428.817505,303.999115 
	C429.983551,303.999115 431.298523,304.323700 432.276978,303.891815 
	C433.437042,303.379791 434.307159,302.210907 435.567444,301.577698 
	C438.882782,307.387421 441.933624,312.946106 445.003052,318.421021 
	C445.021637,318.337250 445.041870,318.436432 445.095520,318.749329 
	C445.408905,319.381439 445.668610,319.700623 445.928345,320.019836 
	C446.121155,320.564850 446.313995,321.109894 446.776855,322.154602 
	C447.710266,323.732391 448.373596,324.810547 449.036957,325.888672 
	C450.099060,328.124237 451.161194,330.359772 452.422974,333.014648 
	C452.695984,333.630066 452.837067,333.736603 453.045959,333.753601 
z"/>
<path fill="#F8FAFA" opacity="1.000000" stroke="none" 
	d="
M73.733734,298.360016 
	C69.618057,305.002350 65.502388,311.644684 61.117229,318.468079 
	C60.388844,317.861481 59.929935,317.073761 59.276272,315.776520 
	C62.054188,308.855499 65.026863,302.444061 68.135780,295.708862 
	C70.467804,291.331238 72.759239,287.325684 74.837852,283.212555 
	C78.309769,276.342346 81.645645,269.403412 85.352684,262.305054 
	C87.098000,260.046326 88.529419,257.975983 90.017746,256.245178 
	C90.676048,256.863220 91.558151,257.550598 91.836952,257.359222 
	C96.412621,254.217834 97.809425,256.874451 98.388519,261.186218 
	C97.029030,263.257690 95.796059,265.047913 94.300797,267.031769 
	C87.270248,277.603607 80.501984,287.981812 73.733734,298.360016 
z"/>
<path fill="#007481" opacity="1.000000" stroke="none" 
	d="
M46.225540,361.848511 
	C47.882393,361.179230 49.733196,360.085236 51.587238,360.079712 
	C85.895309,359.977722 120.203773,360.005951 154.512161,360.006042 
	C250.942032,360.006226 347.371918,360.004669 443.801788,360.016876 
	C445.623108,360.017090 447.444427,360.178467 449.589081,360.509949 
	C448.257172,360.875244 446.601929,361.100220 444.946686,361.100342 
	C312.948303,361.109009 180.949890,361.100098 48.220860,361.084412 
	C47.274826,361.352081 47.059437,361.627869 46.844044,361.903656 
	C46.844044,361.903656 46.420994,361.930450 46.225540,361.848511 
z"/>
<path fill="#F8FAFA" opacity="1.000000" stroke="none" 
	d="
M446.265869,319.966278 
	C445.668610,319.700623 445.408905,319.381439 445.072205,318.751221 
	C444.995239,318.440186 444.984436,318.504822 444.984436,318.504822 
	C441.933624,312.946106 438.882782,307.387421 435.525848,301.270020 
	C434.825745,299.751251 434.431763,298.791199 433.958557,297.660034 
	C433.743378,297.272003 433.566620,297.096069 433.031250,296.797607 
	C428.108185,287.836365 423.502930,279.038605 419.078918,269.941833 
	C420.842743,268.758545 422.425323,267.874298 424.283936,267.204773 
	C428.718018,276.252502 432.876099,285.085510 437.156677,294.258789 
	C437.960449,296.255066 438.299957,298.195221 439.392548,299.509186 
	C441.817780,302.425781 441.553497,307.822357 447.004883,308.000000 
	C447.582764,308.771088 448.160645,309.542206 448.738556,310.313293 
	C445.082916,312.586700 446.683289,315.555359 447.567719,318.492645 
	C447.671692,318.837921 446.945038,319.433289 446.265869,319.966278 
z"/>
<path fill="#C9D8DB" opacity="1.000000" stroke="none" 
	d="
M437.034180,293.918518 
	C432.876099,285.085510 428.718018,276.252502 424.242432,266.844666 
	C421.634155,261.169647 419.343445,256.069397 417.479004,250.978973 
	C419.061523,250.985229 420.217743,250.981689 421.373932,250.978149 
	C423.059723,253.974045 424.920715,256.886353 426.398041,259.981720 
	C430.576233,268.736298 434.597198,277.565918 438.828278,286.686218 
	C439.619720,288.770844 440.263031,290.535248 440.612793,292.677002 
	C439.224182,293.342407 438.129181,293.630463 437.034180,293.918518 
z"/>
<path fill="#C9D8DB" opacity="1.000000" stroke="none" 
	d="
M85.038788,262.493408 
	C81.645645,269.403412 78.309769,276.342346 74.837852,283.212555 
	C72.759239,287.325684 70.467804,291.331238 67.767006,295.707031 
	C66.153641,295.693817 65.045296,295.358704 63.936951,295.023560 
	C67.506866,287.888092 71.076790,280.752655 74.767838,273.301422 
	C77.304375,268.769775 79.719772,264.553925 82.751251,260.271423 
	C83.924484,260.967621 84.481636,261.730530 85.038788,262.493408 
z"/>
<path fill="#F3F3F3" opacity="1.000000" stroke="none" 
	d="
M63.671513,295.228729 
	C65.045296,295.358704 66.153641,295.693817 67.630760,296.030762 
	C65.026863,302.444061 62.054188,308.855499 59.042629,315.632843 
	C58.062008,317.533081 57.330364,319.269745 56.110661,320.536438 
	C55.170712,321.512665 53.617638,321.898499 52.337189,322.546844 
	C52.277813,321.248596 51.749500,319.733276 52.233852,318.686676 
	C55.845192,310.883575 59.657074,303.173279 63.671513,295.228729 
z"/>
<path fill="#F3F3F3" opacity="1.000000" stroke="none" 
	d="
M437.156677,294.258789 
	C438.129181,293.630463 439.224182,293.342407 440.663086,293.028381 
	C443.005371,297.730164 445.003784,302.457916 447.003540,307.592834 
	C441.553497,307.822357 441.817780,302.425781 439.392548,299.509186 
	C438.299957,298.195221 437.960449,296.255066 437.156677,294.258789 
z"/>
<path fill="#FAFAFA" opacity="1.000000" stroke="none" 
	d="
M466.275513,292.191101 
	C467.865814,293.235016 469.112762,294.343079 470.359680,295.451172 
	C469.918091,295.898041 469.476501,296.344910 469.034912,296.791779 
	C466.493988,296.684387 465.119568,295.489380 466.275513,292.191101 
z"/>
<path fill="#FAFAFA" opacity="1.000000" stroke="none" 
	d="
M480.085815,287.670410 
	C479.756927,286.472656 479.523773,285.582886 479.290619,284.693146 
	C479.683685,284.581757 480.076782,284.470367 480.469849,284.358978 
	C480.769196,285.681702 481.070526,287.004028 481.350037,288.330902 
	C481.354370,288.351501 481.054596,288.507812 480.958221,288.464417 
	C480.682373,288.340057 480.438171,288.145416 480.085815,287.670410 
z"/>
<path fill="#F3F3F3" opacity="1.000000" stroke="none" 
	d="
M449.026855,325.519897 
	C448.373596,324.810547 447.710266,323.732391 447.011108,322.331665 
	C447.655762,323.056427 448.336243,324.103760 449.026855,325.519897 
z"/>
<path fill="#F3F3F3" opacity="1.000000" stroke="none" 
	d="
M452.999878,333.651001 
	C452.837067,333.736603 452.695984,333.630066 452.667725,333.303711 
	C452.712799,333.173431 452.953796,333.548370 452.999878,333.651001 
z"/>
<path fill="#C9D8DB" opacity="1.000000" stroke="none" 
	d="
M47.082375,361.866577 
	C47.059437,361.627869 47.274826,361.352081 47.755695,361.130493 
	C47.858261,361.476288 47.624771,361.691254 47.082375,361.866577 
z"/>
<path fill="url(#sunGradient)" opacity="1.000000" stroke="none" 
	d="
M187.936493,157.948746 
	C189.087585,169.056641 185.876404,178.185867 176.010284,184.316406 
	C165.349915,190.940491 152.668640,188.095108 146.455444,177.155609 
	C158.252930,171.067062 169.796829,165.390396 181.411880,159.863235 
	C183.432800,158.901566 185.753998,158.570877 187.936493,157.948746 
z"/>
<path fill="url(#sunGradient)" opacity="1.000000" stroke="none" 
	d="
M187.956573,157.556244 
	C185.753998,158.570877 183.432800,158.901566 181.411880,159.863235 
	C169.796829,165.390396 158.252930,171.067062 146.357300,176.829041 
	C144.995499,173.914001 143.961288,170.862976 143.230316,167.192932 
	C144.977051,165.402481 146.266968,163.926605 147.888687,163.108475 
	C159.400742,157.300735 170.980728,151.627625 182.539062,145.911621 
	C184.351593,149.662323 186.164108,153.413025 187.956573,157.556244 
z"/>
<path fill="url(#sunGradient)" opacity="1.000000" stroke="none" 
	d="
M182.325195,145.612793 
	C170.980728,151.627625 159.400742,157.300735 147.888687,163.108475 
	C146.266968,163.926605 144.977051,165.402481 143.259720,166.791931 
	C142.310608,151.645081 151.078964,140.445023 165.446014,138.710541 
	C172.053589,137.912811 177.817017,139.932007 182.325195,145.612793 
z"/>
<path fill="#73BFC2" opacity="1.000000" stroke="none" 
	d="
M108.273979,221.817688 
	C108.587158,221.431473 108.902847,221.047287 109.213135,220.658768 
	C121.914398,204.754669 133.095016,201.688477 152.030777,209.185913 
	C156.635498,211.009094 161.005859,213.424133 165.588730,216.148224 
	C165.452133,217.922501 165.210770,219.115631 164.638260,220.148865 
	C161.336731,218.532852 158.444077,216.883713 155.383591,215.651382 
	C132.181717,206.308929 126.629524,208.313522 112.231987,223.546860 
	C111.891220,223.907425 111.521873,224.240967 111.077332,224.153931 
	C110.083862,223.086395 109.178917,222.452042 108.273979,221.817688 
z"/>
<path fill="#91CDD0" opacity="1.000000" stroke="none" 
	d="
M164.969421,220.308746 
	C165.210770,219.115631 165.452133,217.922501 165.829651,216.386414 
	C172.816284,220.380066 179.667206,224.716019 186.516129,229.055115 
	C186.936722,229.321564 187.327835,229.636093 187.755814,229.889099 
	C204.983978,240.074081 202.145966,239.447021 215.863678,227.251404 
	C216.988586,228.227936 217.505692,229.225906 217.892014,230.514099 
	C215.537430,233.028275 213.387054,235.332031 211.075394,237.460602 
	C205.264587,242.811111 202.427521,243.626129 195.535522,239.625778 
	C185.118820,233.579575 175.136383,226.785172 164.969421,220.308746 
z"/>
<path fill="#73BFC2" opacity="1.000000" stroke="none" 
	d="
M218.022797,230.223907 
	C217.505692,229.225906 216.988586,228.227936 216.143372,227.083237 
	C225.321533,215.038193 234.827820,203.139862 244.631165,191.088135 
	C245.886337,191.544250 246.844452,192.153763 247.883881,193.399658 
	C239.637329,204.388885 231.309494,214.741730 222.750122,225.134308 
	C222.199005,225.348007 222.073380,225.613754 221.973602,226.253937 
	C220.544556,227.765747 219.283676,228.994827 218.022797,230.223907 
z"/>
<path fill="#91CDD0" opacity="1.000000" stroke="none" 
	d="
M108.005615,221.937164 
	C109.178917,222.452042 110.083862,223.086395 110.984772,224.442932 
	C103.974098,235.411957 96.967461,245.658798 89.960831,255.905640 
	C88.529419,257.975983 87.098000,260.046326 85.352684,262.305054 
	C84.481636,261.730530 83.924484,260.967621 83.017982,260.079865 
	C91.024841,247.322189 99.381042,234.689407 108.005615,221.937164 
z"/>
<path fill="#F5F5F5" opacity="1.000000" stroke="none" 
	d="
M37.536018,266.389526 
	C37.651665,265.941681 37.933773,265.667175 38.233746,265.413818 
	C38.241383,265.407379 38.445564,265.633606 38.558083,265.751343 
	C38.273659,266.022766 37.989231,266.294220 37.536018,266.389526 
z"/>
<path fill="#73BFC2" opacity="1.000000" stroke="none" 
	d="
M382.086578,178.956085 
	C382.991333,178.102402 383.896088,177.248718 384.979675,176.130646 
	C392.098053,189.964844 399.037598,204.063431 405.866272,218.842743 
	C405.097748,220.562393 404.440063,221.601318 403.541687,222.353622 
	C396.229492,207.696686 389.158020,193.326370 382.086578,178.956085 
z"/>
<path fill="#91CDD0" opacity="1.000000" stroke="none" 
	d="
M403.782410,222.640259 
	C404.440063,221.601318 405.097748,220.562393 405.941742,219.197052 
	C411.127533,229.331482 416.126984,239.792313 421.250183,250.615646 
	C420.217743,250.981689 419.061523,250.985229 417.318909,250.668243 
	C412.415802,241.111908 408.099091,231.876083 403.782410,222.640259 
z"/>
<path fill="#FBFCFC" opacity="1.000000" stroke="none" 
	d="
M403.541687,222.353622 
	C408.099091,231.876083 412.415802,241.111908 416.892609,250.658447 
	C419.343445,256.069397 421.634155,261.169647 423.966400,266.629944 
	C422.425323,267.874298 420.842743,268.758545 418.816956,269.715149 
	C414.667267,263.334259 410.960754,256.880981 407.239960,250.160706 
	C407.160980,249.543411 407.096313,249.193146 406.939697,248.669464 
	C406.696106,248.277405 406.505463,248.100891 405.952820,247.816559 
	C398.760101,235.442200 391.890320,223.217804 385.018005,210.764923 
	C384.935486,210.209335 384.734833,209.995392 384.306519,209.575195 
	C383.474884,208.146164 382.750305,207.036499 381.970093,205.583725 
	C375.589691,194.606903 369.264832,183.973190 362.902313,173.213699 
	C362.864624,173.087921 362.683807,172.897537 362.667206,172.620956 
	C362.525452,172.208481 362.400330,172.072601 362.187622,171.590363 
	C357.051270,163.075470 351.706787,155.072586 347.018036,146.702362 
	C338.481750,131.463699 317.078735,131.804138 307.484467,144.440765 
	C300.603851,153.503296 293.731537,162.572159 286.547699,171.800842 
	C275.445679,186.165253 264.651520,200.367020 253.562561,214.756592 
	C243.141693,227.175323 233.015564,239.406250 222.630096,251.709946 
	C222.200623,251.840225 222.030487,251.897720 221.519806,251.926971 
	C219.265411,252.361496 216.845734,252.243088 215.527649,253.390350 
	C210.538559,257.732788 206.000854,261.491638 198.597092,257.713867 
	C196.602631,256.696167 191.067612,253.063049 189.335587,259.755249 
	C188.018494,258.730896 187.022598,257.825623 186.055115,256.584412 
	C186.279800,255.373215 186.476074,254.497971 186.767014,253.200607 
	C185.077545,253.583145 183.854675,253.860031 182.310806,254.024780 
	C178.662292,251.263870 175.334793,248.615082 171.915619,245.765549 
	C171.655334,245.311066 171.429062,245.128937 170.923096,244.758728 
	C160.426941,236.262711 149.353699,229.883209 135.498627,229.298920 
	C134.506256,229.458206 133.738358,229.764832 132.720245,230.066986 
	C132.304718,230.039627 132.139435,230.016739 131.828217,230.024017 
	C131.491150,230.113861 131.318573,230.207687 130.845154,230.546967 
	C126.092361,233.813095 121.369331,236.531036 117.310143,240.021103 
	C113.539124,243.263382 110.476227,247.329254 106.865402,251.119598 
	C106.416618,251.459778 106.203979,251.712891 105.985596,251.989670 
	C105.979836,252.013321 105.940994,251.983978 105.744629,252.069550 
	C105.299828,252.308411 105.101921,252.511078 104.968460,252.842285 
	C104.982368,252.921448 104.821938,252.931793 104.495804,252.911377 
	C103.243271,252.768097 102.316887,252.645233 101.208977,252.498291 
	C101.576492,254.066605 101.824028,255.122910 101.969238,256.488190 
	C100.749626,258.166412 99.632332,259.535645 98.515030,260.904907 
	C97.809425,256.874451 96.412621,254.217834 91.836952,257.359222 
	C91.558151,257.550598 90.676048,256.863220 90.017746,256.245178 
	C96.967461,245.658798 103.974098,235.411957 111.073303,224.876099 
	C111.521873,224.240967 111.891220,223.907425 112.231987,223.546860 
	C126.629524,208.313522 132.181717,206.308929 155.383591,215.651382 
	C158.444077,216.883713 161.336731,218.532852 164.638245,220.148865 
	C175.136383,226.785172 185.118820,233.579575 195.535522,239.625778 
	C202.427521,243.626129 205.264587,242.811111 211.075394,237.460602 
	C213.387054,235.332031 215.537430,233.028275 217.892029,230.514099 
	C219.283676,228.994827 220.544556,227.765747 222.156647,226.154144 
	C222.734848,225.594284 222.892776,225.368607 222.981628,225.094574 
	C231.309494,214.741730 239.637329,204.388885 248.018280,193.722351 
	C259.471222,177.647018 270.837372,161.860901 282.282593,146.132278 
	C290.045654,135.463867 297.700745,124.705917 305.798126,114.294434 
	C316.534119,100.490242 342.062286,101.570618 350.397064,118.111244 
	C360.581696,138.322983 371.268250,158.281830 381.912170,178.653046 
	C389.158020,193.326370 396.229492,207.696686 403.541687,222.353622 
z"/>
<path fill="#1B8C98" opacity="1.000000" stroke="none" 
	d="
M407.254242,250.427734 
	C410.960754,256.880981 414.667267,263.334259 418.635742,270.014191 
	C423.502930,279.038605 428.108185,287.836365 433.061523,296.995422 
	C433.556458,297.597748 433.765839,297.755890 434.037781,297.831146 
	C434.431763,298.791199 434.825745,299.751251 435.261322,301.018982 
	C434.307159,302.210907 433.437042,303.379791 432.276978,303.891815 
	C431.298523,304.323700 429.983551,303.999115 428.817505,303.999115 
	C312.370026,304.000031 195.922562,304.002563 79.475082,303.986298 
	C76.317001,303.985870 72.104675,305.015991 73.785294,298.771515 
	C80.501984,287.981812 87.270248,277.603607 94.685486,267.052795 
	C99.200714,264.906769 101.885498,261.058197 107.388603,261.822571 
	C115.117767,262.896149 123.025963,262.872742 130.860443,262.930359 
	C136.289520,262.970337 141.719955,262.195892 147.156128,262.077942 
	C152.872147,261.953888 158.595886,262.168182 164.315964,262.253510 
	C169.170700,262.325989 174.026764,262.545685 178.879028,262.476105 
	C183.050858,262.416351 187.218140,262.039917 191.706055,261.911438 
	C196.396851,263.489380 201.602783,267.205444 204.965881,265.957031 
	C211.751175,263.438324 218.362106,259.176514 221.860367,251.955200 
	C222.030487,251.897720 222.200623,251.840225 222.690216,252.111908 
	C223.886475,255.738892 226.385925,256.025787 229.251648,256.024139 
	C286.832794,255.991623 344.413971,255.986633 401.995117,256.028534 
	C405.952454,256.031403 408.562347,255.174286 407.254242,250.427734 
z"/>
<path fill="#F3F3F3" opacity="1.000000" stroke="none" 
	d="
M445.003052,318.421021 
	C444.984436,318.504822 444.995239,318.440186 445.018555,318.438293 
	C445.041870,318.436432 445.021637,318.337250 445.003052,318.421021 
z"/>
<path fill="#1D919D" opacity="1.000000" stroke="none" 
	d="
M191.387436,261.803497 
	C187.218140,262.039917 183.050858,262.416351 178.879028,262.476105 
	C174.026764,262.545685 169.170700,262.325989 164.315964,262.253510 
	C158.595886,262.168182 152.872147,261.953888 147.156128,262.077942 
	C141.719955,262.195892 136.289520,262.970337 130.860443,262.930359 
	C123.025963,262.872742 115.117767,262.896149 107.388603,261.822571 
	C101.885498,261.058197 99.200714,264.906769 94.947769,266.859161 
	C95.796059,265.047913 97.029030,263.257690 98.388519,261.186218 
	C99.632332,259.535645 100.749626,258.166412 102.238754,256.332947 
	C103.347710,254.889755 104.084824,253.910782 104.821945,252.931793 
	C104.821938,252.931793 104.982368,252.921448 105.170609,252.767029 
	C105.606071,252.452316 105.800117,252.242767 105.940994,251.983978 
	C105.940994,251.983978 105.979836,252.013321 106.258194,251.969604 
	C106.724892,251.628113 106.913231,251.330322 107.101562,251.032532 
	C110.476227,247.329254 113.539124,243.263382 117.310143,240.021103 
	C121.369331,236.531036 126.092361,233.813095 131.006775,230.598755 
	C131.730667,230.379105 131.892792,230.230637 131.974152,229.993851 
	C132.139435,230.016739 132.304718,230.039627 132.889069,230.358734 
	C134.113129,230.252029 134.918106,229.849136 135.723099,229.446243 
	C149.353699,229.883209 160.426941,236.262711 170.919342,245.015137 
	C171.427490,245.676239 171.717392,245.821259 172.007294,245.966293 
	C175.334793,248.615082 178.662292,251.263870 182.478592,254.299210 
	C183.987152,255.430634 185.006912,256.175507 186.026688,256.920349 
	C187.022598,257.825623 188.018494,258.730896 189.475159,259.976044 
	C190.419754,260.811798 190.903595,261.307648 191.387436,261.803497 
z"/>
<path fill="#F3F3F3" opacity="1.000000" stroke="none" 
	d="
M433.958557,297.660034 
	C433.765839,297.755890 433.556458,297.597748 433.379395,297.158905 
	C433.566620,297.096069 433.743378,297.272003 433.958557,297.660034 
z"/>
<path fill="#F8FAFA" opacity="1.000000" stroke="none" 
	d="
M222.750122,225.134293 
	C222.892776,225.368607 222.734848,225.594284 222.324799,225.871429 
	C222.073380,225.613754 222.199005,225.348007 222.750122,225.134293 
z"/>
<path fill="#1D94A0" opacity="1.000000" stroke="none" 
	d="
M407.239960,250.160706 
	C408.562347,255.174286 405.952454,256.031403 401.995117,256.028534 
	C344.413971,255.986633 286.832794,255.991623 229.251648,256.024139 
	C226.385925,256.025787 223.886475,255.738892 222.949554,252.039124 
	C233.015564,239.406250 243.141693,227.175323 253.609894,215.077286 
	C254.375977,215.495392 254.799973,215.780609 255.223953,216.065826 
	C257.034058,211.876678 260.592041,211.848892 264.416138,211.964569 
	C278.015076,212.375961 291.617859,212.855804 305.220306,212.892578 
	C315.659027,212.920792 326.097595,212.158630 336.539551,212.039719 
	C350.597015,211.879654 364.657928,212.041565 378.716705,211.955124 
	C380.819885,211.942200 382.919342,211.328949 385.020538,210.993423 
	C391.890320,223.217804 398.760101,235.442200 406.000671,248.017548 
	C406.530426,248.611649 406.750488,248.769760 407.031647,248.842865 
	C407.096313,249.193146 407.160980,249.543411 407.239960,250.160706 
z"/>
<path fill="#1F9AA7" opacity="1.000000" stroke="none" 
	d="
M385.018005,210.764923 
	C382.919342,211.328949 380.819885,211.942200 378.716705,211.955124 
	C364.657928,212.041565 350.597015,211.879654 336.539551,212.039719 
	C326.097595,212.158630 315.659027,212.920792 305.220306,212.892578 
	C291.617859,212.855804 278.015076,212.375961 264.416138,211.964569 
	C260.592041,211.848892 257.034058,211.876678 255.223953,216.065826 
	C254.799973,215.780609 254.375977,215.495392 253.904663,214.889496 
	C264.651520,200.367020 275.445679,186.165253 286.731384,172.183868 
	C289.199280,172.936188 291.173309,173.920181 293.152405,173.930511 
	C314.448608,174.041916 335.745636,174.017090 357.042328,173.970978 
	C359.008667,173.966721 360.974121,173.559555 362.940002,173.339478 
	C369.264832,183.973190 375.589691,194.606903 381.968475,205.958771 
	C382.819458,207.749466 383.616516,208.822006 384.413544,209.894562 
	C384.734833,209.995392 384.935486,210.209335 385.018005,210.764923 
z"/>
<path fill="#21A0AD" opacity="1.000000" stroke="none" 
	d="
M362.902313,173.213699 
	C360.974121,173.559555 359.008667,173.966721 357.042328,173.970978 
	C335.745636,174.017090 314.448608,174.041916 293.152405,173.930511 
	C291.173309,173.920181 289.199280,172.936188 287.039215,172.021240 
	C293.731537,162.572159 300.603851,153.503296 307.484467,144.440765 
	C317.078735,131.804138 338.481750,131.463699 347.018036,146.702362 
	C351.706787,155.072586 357.051270,163.075470 361.967102,171.716232 
	C362.117310,172.424835 362.400574,172.661179 362.683807,172.897537 
	C362.683807,172.897537 362.864624,173.087921 362.902313,173.213699 
z"/>
<path fill="#F8FAFA" opacity="1.000000" stroke="none" 
	d="
M191.706055,261.911438 
	C190.903595,261.307648 190.419754,260.811798 189.796356,260.095123 
	C191.067612,253.063049 196.602631,256.696167 198.597092,257.713867 
	C206.000854,261.491638 210.538559,257.732788 215.527649,253.390350 
	C216.845734,252.243088 219.265411,252.361496 221.519806,251.926971 
	C218.362106,259.176514 211.751175,263.438324 204.965881,265.957031 
	C201.602783,267.205444 196.396851,263.489380 191.706055,261.911438 
z"/>
<path fill="#F8FAFA" opacity="1.000000" stroke="none" 
	d="
M186.055115,256.584412 
	C185.006912,256.175507 183.987152,255.430634 182.799606,254.411346 
	C183.854675,253.860031 185.077545,253.583145 186.767014,253.200607 
	C186.476074,254.497971 186.279800,255.373215 186.055115,256.584412 
z"/>
<path fill="#F8FAFA" opacity="1.000000" stroke="none" 
	d="
M104.495804,252.911377 
	C104.084824,253.910782 103.347710,254.889755 102.341080,256.023987 
	C101.824028,255.122910 101.576492,254.066605 101.208977,252.498291 
	C102.316887,252.645233 103.243271,252.768097 104.495804,252.911377 
z"/>
<path fill="#F8FAFA" opacity="1.000000" stroke="none" 
	d="
M135.498627,229.298920 
	C134.918106,229.849136 134.113129,230.252029 133.139313,230.363190 
	C133.738358,229.764832 134.506256,229.458206 135.498627,229.298920 
z"/>
<path fill="#1D94A0" opacity="1.000000" stroke="none" 
	d="
M384.306519,209.575195 
	C383.616516,208.822006 382.819458,207.749466 382.024048,206.301880 
	C382.750305,207.036499 383.474884,208.146164 384.306519,209.575195 
z"/>
<path fill="#1F9AA7" opacity="1.000000" stroke="none" 
	d="
M362.667206,172.620956 
	C362.400574,172.661179 362.117310,172.424835 362.054626,172.062622 
	C362.400330,172.072601 362.525452,172.208481 362.667206,172.620956 
z"/>
<path fill="#F8FAFA" opacity="1.000000" stroke="none" 
	d="
M131.828217,230.024017 
	C131.892792,230.230637 131.730667,230.379105 131.326172,230.387451 
	C131.318573,230.207687 131.491150,230.113861 131.828217,230.024017 
z"/>
<path fill="#F8FAFA" opacity="1.000000" stroke="none" 
	d="
M105.744629,252.069550 
	C105.800117,252.242767 105.606071,252.452316 105.156708,252.687866 
	C105.101921,252.511078 105.299828,252.308411 105.744629,252.069550 
z"/>
<path fill="#F8FAFA" opacity="1.000000" stroke="none" 
	d="
M106.865410,251.119598 
	C106.913231,251.330322 106.724892,251.628113 106.263954,251.945953 
	C106.203979,251.712891 106.416618,251.459778 106.865410,251.119598 
z"/>
<path fill="#F8FAFA" opacity="1.000000" stroke="none" 
	d="
M406.939697,248.669464 
	C406.750488,248.769760 406.530426,248.611649 406.323639,248.167511 
	C406.505463,248.100891 406.696106,248.277405 406.939697,248.669464 
z"/>
<path fill="#F8FAFA" opacity="1.000000" stroke="none" 
	d="
M171.915619,245.765549 
	C171.717392,245.821259 171.427490,245.676239 171.141357,245.274811 
	C171.429062,245.128937 171.655334,245.311066 171.915619,245.765549 
z"/>
</svg>